<?xml version="1.0" encoding="utf-8"?>
<!-- Generator: Adobe Illustrator 25.4.1, SVG Export Plug-In . SVG Version: 6.00 Build 0)  -->
<svg version="1.1" id="Layer_1" xmlns="http://www.w3.org/2000/svg" xmlns:xlink="http://www.w3.org/1999/xlink" x="0px" y="0px"
	 viewBox="0 0 1282.9 1525.4" style="enable-background:new 0 0 1282.9 1525.4;" xml:space="preserve">
<style type="text/css">
	.st0{fill:#FFFFFF;}
	.st1{opacity:0.15;fill:url(#SVGID_1_);enable-background:new    ;}
	.st2{fill:#CE3241;}
	.st3{fill:#BC1330;}
	.st4{fill:#CC193B;}
</style>
<g>
	<g id="Layer_1_00000092414305298188458650000011947207334388530593_">
		<g>
			<circle class="st0" cx="651" cy="432.2" r="225.1"/>
			<path d="M637.1,200.9c-124,0-224.8,100.9-224.8,224.8s100.9,224.9,224.8,224.9S862,549.7,862,425.7S761.1,200.9,637.1,200.9z
				 M726.3,567.2c-31.3,16.8-74.1,27.7-110.6,28l-62.1-61.4l26.1-67.3l99.5-28.8l55.6,41.6L726.3,567.2z M487.6,536.2
				c-20.2-23.1-38.2-53.1-49.8-83.6l0,0l13.7-61.9l69.6-4l48.1,76.1l-25.9,66.8L487.6,536.2z M633.4,212c1.2,0,2.5-0.1,3.7-0.1
				c32.4,0,64.3,7.3,93.4,21.5l11.2,50.3l-68.3,42.4l-81.2-25.8L577.5,238L633.4,212z M740.7,469.9l-56.8-42.5l-3.2-92.6l67.6-41.9
				l60.7,53c4.6,32,4.5,66-0.1,101.2L740.7,469.9z M818.5,457.6c6-39.4,6.5-77.3,1.5-113l11.1-8.7c25.4,54.8,26.4,117.7,2.8,173.3
				L818.5,457.6z M515.8,249.9l51.1-8.4l14.6,62l-60.4,72.2l-69,3.9l-5.7-50.4C462.6,297.4,486.5,270.1,515.8,249.9z M426.5,462.4
				l4.2,2.3c12.3,29.6,30.2,58.3,50.1,80.6c4.4,14,9.7,27.8,15.7,41.3C459.7,554.5,435,510.6,426.5,462.4z M596.2,635.6l20.1-29.3
				c39-0.5,84.7-12.3,117.5-30.6l44.6,10.3C728.7,629.9,661.4,648.2,596.2,635.6L596.2,635.6z"/>
			<g>
				
					<radialGradient id="SVGID_1_" cx="1205.9365" cy="3558.0161" r="47.19" gradientTransform="matrix(13.59 0 0 1.97 -15749.3896 -5569.4302)" gradientUnits="userSpaceOnUse">
					<stop  offset="0" style="stop-color:#161616"/>
					<stop  offset="1" style="stop-color:#000000;stop-opacity:0"/>
				</radialGradient>
				<ellipse class="st1" cx="641.5" cy="1432.5" rx="641.5" ry="92.9"/>
				<path class="st2" d="M215.5,425.9c0,235.2,425.9,917.2,425.9,917.2V713.3C482.7,713.3,354,584.6,354,425.9
					s128.7-287.4,287.3-287.4V0C406.2,0,215.5,190.7,215.5,425.9z"/>
				<path class="st3" d="M928.8,425.9c0,158.7-128.7,287.4-287.4,287.4v629.8c0,0,425.9-681.9,425.9-917.2S876.7,0,641.4,0v138.5
					C800.2,138.5,928.8,267.2,928.8,425.9z"/>
				<path class="st4" d="M641.4,138.5C482.7,138.5,354,267.2,354,425.9s128.7,287.4,287.4,287.4s287.4-128.7,287.4-287.4
					S800.2,138.5,641.4,138.5z M641.4,639c-117.5,0-213-95.6-213-213.1s95.6-213,213-213s213,95.6,213,213S758.9,639,641.4,639z"/>
			</g>
		</g>
	</g>
</g>
</svg>
