<?xml version="1.0" encoding="utf-8"?>
<!-- Generator: Adobe Illustrator 25.4.1, SVG Export Plug-In . SVG Version: 6.00 Build 0)  -->
<svg version="1.1" id="Layer_1" xmlns="http://www.w3.org/2000/svg" xmlns:xlink="http://www.w3.org/1999/xlink" x="0px" y="0px"
	 viewBox="0 0 64 64" style="enable-background:new 0 0 64 64;" xml:space="preserve">
<style type="text/css">
	.st0{fill:none;stroke:#BD2332;stroke-width:2;stroke-linecap:round;stroke-miterlimit:10;}
	.st1{fill:none;stroke:#BD2332;stroke-width:2;stroke-miterlimit:10;}
	.st2{fill:#BD2332;}
</style>
<g>
	<path class="st0" d="M21.1,48.5c3.5,3.7,8.4,6,13.9,6c10.5,0,19-8.5,19-19s-8.5-19-19-19c-6.6,0-12.5,3.4-15.9,8.5"/>
	<path class="st0" d="M28,48.2c2.1,1.1,4.5,1.8,7,1.8c8,0,14.5-6.5,14.5-14.5S43,21,35,21"/>
	<circle class="st1" cx="35" cy="35.5" r="3"/>
	<line class="st0" x1="32.9" y1="37.6" x2="25.5" y2="45"/>
	<g>
		<path class="st2" d="M52.9,20.1l-3.4-3.4c-0.2-0.2-0.5-0.2-0.7,0L48,17.3c-0.2,0.2-0.2,0.5,0,0.7l1,1L47,21.1l1.4,1.4l2.1-2.1l1,1
			c0.2,0.2,0.5,0.2,0.7,0l0.7-0.7C53,20.6,53,20.3,52.9,20.1z"/>
		<path class="st2" d="M39,9.5h-8c-0.6,0-1,0.4-1,1v2c0,0.6,0.4,1,1,1h2v3h4v-3h2c0.6,0,1-0.4,1-1v-2C40,9.9,39.6,9.5,39,9.5z"/>
	</g>
	<line class="st0" x1="12" y1="29.5" x2="18" y2="29.5"/>
	<line class="st0" x1="8" y1="34.5" x2="22" y2="34.5"/>
	<line class="st0" x1="12" y1="39.5" x2="26" y2="39.5"/>
	<line class="st0" x1="10" y1="44.5" x2="20" y2="44.5"/>
</g>
</svg>
