<svg xmlns="http://www.w3.org/2000/svg" width="44.938" height="36.75" viewBox="0 0 44.938 36.75">
  <defs>
    <style>
      .cls-1 {
        fill: #ce3241;
        fill-rule: evenodd;
      }
    </style>
  </defs>
  <path id="analyse.svg" class="cls-1" d="M352.809,627.057a0.757,0.757,0,0,1-.521-1.308l10.5-9.865a0.759,0.759,0,1,1,1.041,1.1l-10.5,9.864A0.752,0.752,0,0,1,352.809,627.057Zm-3.834.6a0.756,0.756,0,0,1-.4-0.111l-9.078-5.53a0.757,0.757,0,1,1,.791-1.292l9.078,5.529A0.757,0.757,0,0,1,348.975,627.655Zm-21.36,3.636a0.747,0.747,0,0,1-.528-0.214,0.756,0.756,0,0,1-.017-1.071l8.7-8.943a0.752,0.752,0,0,1,.545-0.23,0.756,0.756,0,0,1,.543,1.285l-8.7,8.944A0.752,0.752,0,0,1,327.615,631.291Zm-1.722,3.788a2.985,2.985,0,0,1,.13-5.967,3.019,3.019,0,0,1,2.992,3.119,2.987,2.987,0,0,1-2.986,2.85Zm0.132-4.453a1.471,1.471,0,0,0-.065,2.94h0.007a1.506,1.506,0,0,0,1.053-.384,1.47,1.47,0,0,0-.928-2.554l-0.067-.088v0.086ZM337.762,623a2.985,2.985,0,0,1,.131-5.967,3.019,3.019,0,0,1,2.99,3.12A2.98,2.98,0,0,1,337.9,623Zm0.133-4.452a1.47,1.47,0,0,0-.065,2.938h0a1.482,1.482,0,0,0,1.534-1.4l0.076,0a1.613,1.613,0,0,0-1.482-1.53l-0.066-.088v0.087Zm13.129,12.506a2.99,2.99,0,0,1-2.854-3.116,2.957,2.957,0,0,1,.97-2.069,2.988,2.988,0,0,1,2.017-.782,3.054,3.054,0,0,1,2.209.971,2.985,2.985,0,0,1-.19,4.218,2.993,2.993,0,0,1-2.015.78Zm0.132-4.452a1.47,1.47,0,0,0-.064,2.938H351.1a1.507,1.507,0,0,0,1.053-.383,1.47,1.47,0,0,0-.929-2.554l-0.067-.088V626.6Zm13.686-8.96a2.985,2.985,0,0,1,.13-5.967,3.02,3.02,0,0,1,2.992,3.12,2.989,2.989,0,0,1-2.986,2.85Zm0.132-4.452a1.47,1.47,0,0,0-.065,2.939h0.007a1.506,1.506,0,0,0,1.053-.384,1.47,1.47,0,0,0-.928-2.554l-0.067-.088v0.087Zm-20.65,25.735a14.407,14.407,0,1,1,14.436-14.407A14.438,14.438,0,0,1,344.324,638.926Zm0-27.3a12.893,12.893,0,1,0,12.919,12.892A12.921,12.921,0,0,0,344.324,611.627Zm19.591,35.26a2.786,2.786,0,0,1-1.983-.82L351.894,636.05a0.758,0.758,0,0,1,1.072-1.071L363,645a1.3,1.3,0,0,0,1.84-1.835l-9.6-9.579a0.758,0.758,0,0,1,1.073-1.071l9.6,9.579a2.8,2.8,0,0,1,0,3.959A2.813,2.813,0,0,1,363.915,646.887Z" transform="translate(-323.031 -610.125)"/>
</svg>
