<svg xmlns="http://www.w3.org/2000/svg" width="44.312" height="40.469" viewBox="0 0 44.312 40.469">
  <defs>
    <style>
      .cls-1 {
        fill: #ce3241;
        fill-rule: evenodd;
      }
    </style>
  </defs>
  <path id="compare.svg" class="cls-1" d="M799.18,643.986a2.933,2.933,0,0,1-2.372-1.21l-0.643-.886-4.407-1.259,0.426-1.5,4.922,1.406,0.959,1.32a1.379,1.379,0,0,0,1.534.5l-1.108-3.494a0.777,0.777,0,0,0-.529-0.514l-6.018-1.719-1.059-3.214,1.478-.488,0.8,2.431,5.226,1.493a2.329,2.329,0,0,1,1.584,1.539l1.107,3.494a1.554,1.554,0,0,1-1.011,1.955A2.909,2.909,0,0,1,799.18,643.986ZM772,615.964a3.5,3.5,0,0,1-3.131-5.066l0.778-1.558a3.5,3.5,0,0,1,6.628,1.565,3.533,3.533,0,0,1-.366,1.564l-0.778,1.558A3.481,3.481,0,0,1,772,615.964Zm0.777-7.005a1.936,1.936,0,0,0-1.74,1.077l-0.777,1.557a1.945,1.945,0,1,0,3.48,1.738l0.777-1.557A1.947,1.947,0,0,0,772.78,608.959Zm10.106,7.005a3.48,3.48,0,0,1-3.131-1.937l-0.778-1.558a3.505,3.505,0,0,1,3.131-5.067,3.481,3.481,0,0,1,3.131,1.938l0.777,1.557A3.5,3.5,0,0,1,782.886,615.964Zm-2.517-4.189,0.777,1.556a1.945,1.945,0,0,0,3.479-1.74l-0.777-1.555a1.945,1.945,0,0,0-3.479,1.739h0Zm-19.332,36.1a1.54,1.54,0,0,1-1.181-.548l-2.468-2.935a2.315,2.315,0,0,1,.067-3.056l6.116-6.7,2.694-15.547,1.532,0.266-2.771,16-6.423,7.035a0.755,0.755,0,0,0-.026,1l2.467,2.934a1.371,1.371,0,0,0,.369-1.532l-0.559-1.41,5.895-6.456a2.327,2.327,0,0,0,.579-1.194l0.449-2.707,1.533,0.255-0.448,2.707a3.883,3.883,0,0,1-.965,1.988l-5.239,5.739,0.2,0.5a2.906,2.906,0,0,1-.829,3.3A1.53,1.53,0,0,1,761.037,647.876Zm12.909-6.481h-1.554V635.7l-3.458-4.158,1.2-1,3.817,4.592V641.4Zm3.887-1.1h-1.555V634.86a1.563,1.563,0,0,0-.359-1l-4.863-5.849,1.346-8.125,1.534,0.256-1.229,7.421,4.406,5.3a3.127,3.127,0,0,1,.72,1.992v5.434Zm-1.943,7.583a4.281,4.281,0,1,1,4.275-4.281A4.284,4.284,0,0,1,775.89,647.877Zm0-7a2.724,2.724,0,1,0,2.72,2.724A2.726,2.726,0,0,0,775.89,640.872ZM760.731,625.3a2.335,2.335,0,0,1-1.517-4.108l5.829-5a7.406,7.406,0,0,1,4.821-1.786H772a13.082,13.082,0,0,1,4.032.635l5.713,1.844a2.293,2.293,0,0,1,1.526,2.191,2.336,2.336,0,0,1-2.332,2.335,2.024,2.024,0,0,1-.558-0.069l-5.774-1.63,0.422-1.5,5.773,1.63a0.557,0.557,0,0,0,.137.011,0.779,0.779,0,0,0,.778-0.778,0.735,0.735,0,0,0-.449-0.709l-5.714-1.844a11.523,11.523,0,0,0-3.554-.561h-2.139a5.856,5.856,0,0,0-3.81,1.411l-5.828,5a0.779,0.779,0,0,0,.5,1.371,0.761,0.761,0,0,0,.5-0.186l2.594-2.226,1.011,1.181-2.593,2.226A2.327,2.327,0,0,1,760.731,625.3Zm20.762-7.427-1.259-.915a8.058,8.058,0,0,1,2.418-2.208l0.564-.336,0.793,1.34-0.564.334A6.525,6.525,0,0,0,781.493,617.877Zm-4.437,8.984a2.336,2.336,0,0,1-1.043-4.424l2.3-1.15,0.472-1.27,1.457,0.543-0.685,1.844-2.846,1.425a0.779,0.779,0,0,0,.694,1.394l3.109-1.556a0.787,0.787,0,0,0,.254-0.2l1.2,0.984a2.321,2.321,0,0,1-.762.611l-3.11,1.558A2.307,2.307,0,0,1,777.056,626.861Zm19.433-4.67a2.3,2.3,0,0,1-.966-0.21l-3.892-1.771,0.644-1.417,3.893,1.772a0.8,0.8,0,0,0,1.1-.709,0.781,0.781,0,0,0-.457-0.709l-7.307-3.326a7.012,7.012,0,0,0-2.928-.635H784.79v-1.557h1.785a8.567,8.567,0,0,1,3.572.775l7.307,3.326A2.336,2.336,0,0,1,796.489,622.191Zm-9.947,25.686a1.579,1.579,0,0,1-.428-0.06,1.536,1.536,0,0,1-.923-0.738,2.9,2.9,0,0,1,.4-3.371l0.388-.422-3.256-8.82a3.711,3.711,0,0,1,.705-3.749l3.577-4.034,1.163,1.034-3.577,4.034a2.154,2.154,0,0,0-.41,2.175l3.587,9.715-1.033,1.121a1.35,1.35,0,0,0-.187,1.565l3.33-1.858a0.757,0.757,0,0,0,.389-0.663,0.621,0.621,0,0,0-.027-0.2l-3.77-10.427,3.485-2.731a2.842,2.842,0,0,0,.951-3.112l-3.059-9.45,1.479-.48,3.059,9.449a4.429,4.429,0,0,1,.214,1.356,4.374,4.374,0,0,1-1.686,3.463l-2.6,2.035,3.386,9.365a2.113,2.113,0,0,1,.12.732,2.311,2.311,0,0,1-1.192,2.025l-3.347,1.853A1.531,1.531,0,0,1,786.542,647.877Zm-1.778-18.06-2.515-7.206,1.468-.513,2.515,7.205Zm9.393,18.06H775.89V646.32h18.267v1.557Zm3.11,0h-1.555V646.32h1.555v1.557Zm-26.43,0H756.845V646.32h13.992v1.557Z" transform="translate(-756.844 -607.406)"/>
</svg>
