<svg xmlns="http://www.w3.org/2000/svg" width="303.655" height="151.47" viewBox="0 0 303.655 151.47">
  <defs>
    <style>
      .cls-1 {
        fill: #e94050;
        fill-rule: evenodd;
      }
    </style>
  </defs>
  <path id="heartbeat.svg" class="cls-1" d="M914.223,1036.98h0.061c1.38,0.05,1.818,1.6,2.228,7.89,0.271,4.14.456,10,.536,16.95,0.33,28.57,2.742,115.19,2.8,117.28,0.02,0.32.047,0.87,0.078,1.52,0.067,1.37.167,3.43,0.259,4.25,0.006,0.04.012,0.08,0.019,0.13a259.916,259.916,0,0,0,2.591-26.67l0.007-.09,4.943-47.4a10.133,10.133,0,0,1,.281-1.73c0.688-2.76,2.874-4.58,5.288-4.44l7.22,0.45a6.486,6.486,0,0,1,3.686,1.56,2.815,2.815,0,0,0,3.542-.4c1.489-1.45,2.128-4.01,2.558-6.32,0.058-.32.351-2.62,0.585-4.47,0.385-3.02.574-4.49,0.647-4.88a2.663,2.663,0,0,1,2.541-2.39,2.727,2.727,0,0,1,2.445,2.53c0.564,3.77,1.248,9.38,1.909,14.8,0.659,5.39,1.34,10.97,1.9,14.7,0.1,0.64.174,1.37,0.257,2.14a39.469,39.469,0,0,0,.582,4.08c0.089-.17.182-0.38,0.275-0.6l7.44-18.36a8.228,8.228,0,0,1,1.8-2.8c2.361-2.33,4.33-1.05,5.632-.2a3.742,3.742,0,0,0,1.667.77,3.479,3.479,0,0,0,1.422-.47,5.743,5.743,0,0,1,2.137-.67c2.421-.12,3.934,2.19,5.26,4.23,1.279,1.97,2.133,3.16,3.217,3.03,0.893-.09,1.537-1.06,2.491-2.64,0.833-1.38,1.777-2.94,3.249-3.68,1.774-.9,3.573-0.29,5.156.24a13.961,13.961,0,0,0,1.66.5c3.87,0.83,7.57-2.44,9.51-6.05,0.76-1.42,1.83-8.27,2.47-12.37,0.35-2.25.63-4.04,0.83-4.97a2.182,2.182,0,0,1,2.23-1.89,2.356,2.356,0,0,1,1.94,2.32l4.18,54.14a4.53,4.53,0,0,0,.19,1.12,9.674,9.674,0,0,0,1.17-3.33l4.86-21.77c0.5-2.24,1.53-6.25,2.84-7.89,1.82-2.31,4.12-1.53,5.97-.91a13.286,13.286,0,0,0,1.88.54,19.768,19.768,0,0,0,3.05.28,17.568,17.568,0,0,1,4.33.48v3.07a21.755,21.755,0,0,0-4.41-.58,21.408,21.408,0,0,1-3.35-.31,15.924,15.924,0,0,1-2.16-.62c-1.94-.66-2.81-0.83-3.54.1-0.65.82-1.53,3.42-2.24,6.62l-4.86,21.76a11.987,11.987,0,0,1-1.78,4.64l-0.03.04c-1.06,1.36-2.1,1.11-2.5.94-1.05-.46-1.75-1.94-1.86-3.94l-3.98-51.52c-0.11.68-.23,1.44-0.35,2.24-1.02,6.53-1.87,11.66-2.83,13.44-2.38,4.42-7.01,8.41-11.98,7.35a17.348,17.348,0,0,1-1.9-.57c-1.315-.44-2.559-0.86-3.546-0.36a7.028,7.028,0,0,0-2.219,2.7c-1.025,1.69-2.186,3.61-4.244,3.84-2.49.28-4.022-2.08-5.371-4.15-1.239-1.91-2.142-3.16-3.225-3.1a4.038,4.038,0,0,0-1.349.47,5.181,5.181,0,0,1-2.366.67,5.392,5.392,0,0,1-2.778-1.12c-1.3-.85-1.873-1.15-2.924-0.12a5.378,5.378,0,0,0-1.147,1.81l-7.44,18.36c-0.579,1.43-1.53,3.11-2.833,3.05a1.874,1.874,0,0,1-1.629-1.56,30.269,30.269,0,0,1-1.029-5.9c-0.079-.73-0.153-1.42-0.238-1.99-0.565-3.78-1.249-9.38-1.911-14.8-0.658-5.4-1.339-10.98-1.9-14.7-0.01-.07-0.013-0.09-0.086-0.09s-0.083.02-.1,0.09c-0.063.33-.381,2.84-0.613,4.67-0.335,2.64-.545,4.27-0.617,4.66-0.523,2.82-1.337,5.96-3.413,7.98a4.89,4.89,0,0,1-6.435.57,4.357,4.357,0,0,0-2.453-1.08l-7.22-.44a2.839,2.839,0,0,0-2.819,2.33,6.955,6.955,0,0,0-.189,1.19l-4.943,47.41a261.558,261.558,0,0,1-2.673,27.27,2.9,2.9,0,0,1-2.526,2.6h0c-1.237,0-2.1-.98-2.205-2.52-0.017-.24-0.056-0.48-0.062-0.52l-0.013-.1c-0.105-.9-0.2-2.9-0.28-4.51-0.032-.65-0.058-1.19-0.077-1.49l0-.07c-0.025-.88-2.47-88.56-2.8-117.37-0.087-7.47-.277-12.68-0.491-16.2-0.354,3.46-.785,8.84-1.27,17.19-0.475,8.17-2.331,32.56-2.35,32.8a32.093,32.093,0,0,1-1.484,8.08c-1.136,3.08-3.167,5.3-5.432,5.94-1.929.55-3.835,0.01-5.68-.51-2.038-.57-3.8-1.07-5.189-0.04a9.256,9.256,0,0,0-1.819,2.23c-1,1.5-2.137,3.2-4.026,3.49-2.576.4-4.237-2.02-5.7-4.15-1.406-2.05-2.339-3.28-3.508-3.13a4.176,4.176,0,0,0-1.22.49,4.787,4.787,0,0,1-2.45.71,5.184,5.184,0,0,1-2.637-1.19c-1.093-.77-1.463-0.93-1.975-0.56a2.339,2.339,0,0,0-.729.99l-8.945,20.33a2.39,2.39,0,0,1-2.351,1.58,2.523,2.523,0,0,1-2.126-1.9,36.468,36.468,0,0,1-1.124-5.92c-0.1-.72-0.19-1.43-0.3-2.11-0.606-3.79-1.2-8.51-1.82-13.5-0.473-3.79-.956-7.66-1.449-11.1-0.594,2.57-1.3,5.35-1.689,6.46-0.121.35-.249,0.75-0.384,1.17-0.993,3.08-2.491,7.74-5.518,6.71-3.117-1.06-96.832-1.48-98.565-1.26v-3.03c2.068-.26,95.761.26,99.225,1.43,0.887,0.3,2.068-3.37,2.573-4.93,0.144-.45.279-0.87,0.407-1.24a104.755,104.755,0,0,0,2.483-10.46,1.706,1.706,0,0,1,1.544-1.61,1.683,1.683,0,0,1,1.6,1.54c0.758,4.37,1.489,10.22,2.2,15.88,0.621,4.96,1.206,9.65,1.8,13.38,0.113,0.71.212,1.45,0.313,2.2a33.707,33.707,0,0,0,1,5.35l8.96-20.37a5.154,5.154,0,0,1,1.648-2.15c1.823-1.3,3.344-.23,4.455.56a3.5,3.5,0,0,0,1.517.78,3.159,3.159,0,0,0,1.382-.48,5.9,5.9,0,0,1,1.906-.7c2.555-.34,4.207,2.06,5.662,4.18,1.407,2.05,2.348,3.28,3.5,3.11,0.912-.14,1.616-1.2,2.43-2.42a11.258,11.258,0,0,1,2.444-2.89c2.245-1.67,4.785-.95,7.026-0.32,1.642,0.46,3.193.9,4.564,0.51,1.525-.43,2.929-2.03,3.755-4.26a28.992,28.992,0,0,0,1.283-7.18c0.016-.21,1.87-24.56,2.343-32.71,0.482-8.29.965-14.59,1.435-18.73C912.4,1038.82,912.854,1036.98,914.223,1036.98Z" transform="translate(-744.375 -1036.97)"/>
</svg>
