<?xml version="1.0" encoding="utf-8"?>
<!-- Generator: Adobe Illustrator 25.4.1, SVG Export Plug-In . SVG Version: 6.00 Build 0)  -->
<svg version="1.1" id="_x2014_ÎÓÈ_x5F_1" xmlns="http://www.w3.org/2000/svg" xmlns:xlink="http://www.w3.org/1999/xlink"
	 x="0px" y="0px" viewBox="0 0 5173 2000" style="enable-background:new 0 0 5173 2000;" xml:space="preserve">
<style type="text/css">
	.st0{fill:#BD2332;}
</style>
<g>
	<g>
		<path class="st0" d="M1410.1,1941.9c-24.8,0-45-20.1-45-45c0-24.8,20.1-44.9,45-44.9H3763c24.8,0,44.9,20.1,44.9,44.9
			c0,24.8-20.1,45-44.9,45H1410.1z"/>
	</g>
	<g>
		<path class="st0" d="M1410.1,1941.9c-24.8,0-44.9-20.1-44.9-45V151.7c0-24.8,20.1-45,44.9-45c24.8,0,45,20.1,45,45V1897
			C1455.1,1921.8,1434.9,1941.9,1410.1,1941.9z"/>
	</g>
	<g>
		<g>
			<path class="st0" d="M1607.4,1780c-24.8,0-44.9-20.1-44.9-45v-283c0-24.8,20.1-45,44.9-45h366.2c24.8,0,44.9,20.1,44.9,45v283
				c0,24.8-20.1,45-44.9,45H1607.4z M1652.4,1695.2l281.4-5.1l-5.1-198.3l-276.2,5.1V1695.2z"/>
		</g>
		<g>
			<path class="st0" d="M2138.1,1780c-24.8,0-44.9-20.1-44.9-45v-548.4c0-24.8,20.1-45,44.9-45h366.2c24.8,0,44.9,20.1,44.9,45V1735
				c0,24.8-20.1,45-44.9,45H2138.1z M2183.1,1695.2l281.4-5.1l-5.1-463.7l-276.2,5.1V1695.2z"/>
		</g>
		<g>
			<path class="st0" d="M2668.8,1780c-24.8,0-45-20.1-45-45V921.2c0-24.8,20.1-45,45-45h366.1c24.8,0,45,20.1,45,45V1735
				c0,24.8-20.1,45-45,45H2668.8z M2713.8,1695.2l281.4-5.1l-5.1-729l-276.2,5.1V1695.2z"/>
		</g>
		<g>
			<path class="st0" d="M3199.5,1780c-24.8,0-45-20.1-45-45V655.9c0-24.8,20.1-45,45-45h366.1c24.8,0,45,20.1,45,45V1735
				c0,24.8-20.1,45-45,45H3199.5z M3244.5,1695.2l281.4-5.1l-5.1-994.4l-276.3,5.1V1695.2z"/>
		</g>
	</g>
	<g>
		<path class="st0" d="M1607.4,1268c-16.7,0-31.9-9.1-39.7-23.8c-11.7-21.9-3.3-49.2,18.5-60.8L3544.6,140.7
			c6.5-3.5,13.8-5.3,21.2-5.3c9.5,0,18.7,3,26.4,8.6c14,10.2,20.8,27.2,17.9,44.3l-36.3,203.5c-3.8,21.5-22.4,37.1-44.2,37.1
			c-32.4-5.1-48.7-28.5-44.3-52.9l21.9-122.9L1628.5,1262.8C1622.1,1266.2,1614.8,1268,1607.4,1268z"/>
	</g>
	<g>
		<path class="st0" d="M3565.7,225.4c-5.7,0-11.3-1.1-16.6-3.2l-195.4-77.4c-11.2-4.4-19.9-12.9-24.7-23.9
			c-4.8-11.1-5-23.3-0.6-34.4c6.8-17.3,23.3-28.4,41.8-28.4c5.7,0,11.3,1.1,16.6,3.2l195.4,77.4c11.2,4.4,20,12.9,24.7,24
			c4.7,11.1,4.9,23.2,0.5,34.4C3600.6,214.2,3584.2,225.4,3565.7,225.4z"/>
	</g>
</g>
</svg>
