<svg xmlns="http://www.w3.org/2000/svg" width="60.59" height="29.406" viewBox="0 0 60.59 29.406">
  <defs>
    <style>
      .cls-1 {
        fill: #ce3241;
        fill-rule: evenodd;
      }
    </style>
  </defs>
  <path id="share.svg" class="cls-1" d="M1236.6,634.786a1.3,1.3,0,0,1-.62-0.156,0.8,0.8,0,0,1-.52.156h-5.21a1.187,1.187,0,0,1-.59-0.155,0.874,0.874,0,0,1-.54.155h-1.27a1.306,1.306,0,0,1-1.32-1.268l-0.03-.673a13.122,13.122,0,0,1,.1-3.138c0.49-2.585,3.08-2.585,4.19-2.585h4.57c2.28,0,3.74,1.216,3.82,3.175,0.03,0.852.02,1.712,0.01,2.544l-0.01.641a1.325,1.325,0,0,1-1.32,1.3h-1.26Zm-0.61-3.96a0.7,0.7,0,0,1,.7.7v1.946l1.17-.086-0.08-.559c0.01-.817.02-1.66-0.01-2.477-0.05-1.509-1.34-1.827-2.41-1.827h-4.57c-1.85,0-2.61.393-2.81,1.447a12.229,12.229,0,0,0-.08,2.789l0.03,0.713,1.18-.087-0.08-1.859a0.7,0.7,0,1,1,1.4,0v1.94l4.93-.08-0.08-1.861A0.712,0.712,0,0,1,1235.99,630.826Zm-3.13-4.146a2.8,2.8,0,1,1,2.8-2.8A2.8,2.8,0,0,1,1232.86,626.68Zm0-4.194a1.4,1.4,0,1,0,1.4,1.4A1.4,1.4,0,0,0,1232.86,622.486Zm-0.03,16.984a10.942,10.942,0,1,1,10.96-10.943A10.968,10.968,0,0,1,1232.83,639.47Zm0-20.484a9.542,9.542,0,1,0,9.56,9.541A9.562,9.562,0,0,0,1232.83,618.986Zm19.95,5.75a4.488,4.488,0,1,1,4.49-4.487A4.5,4.5,0,0,1,1252.78,624.736Zm0-7.575a3.087,3.087,0,1,0,3.09,3.088A3.1,3.1,0,0,0,1252.78,617.161Zm3.79,22.069a4.488,4.488,0,1,1,4.5-4.488A4.491,4.491,0,0,1,1256.57,639.23Zm0-7.575a3.087,3.087,0,1,0,3.09,3.087A3.095,3.095,0,0,0,1256.57,631.655ZM1217.75,644.1a4.488,4.488,0,1,1,4.49-4.488A4.5,4.5,0,0,1,1217.75,644.1Zm0-7.575a3.087,3.087,0,1,0,3.09,3.087A3.1,3.1,0,0,0,1217.75,636.525Zm-2.55-12.849a4.488,4.488,0,1,1,4.49-4.488A4.5,4.5,0,0,1,1215.2,623.676Zm0-7.576a3.087,3.087,0,1,0,3.09,3.088A3.1,3.1,0,0,0,1215.2,616.1Zm-10.24,18.144a4.488,4.488,0,1,1,4.5-4.488A4.491,4.491,0,0,1,1204.96,634.244Zm0-7.574a3.087,3.087,0,1,0,3.1,3.086A3.094,3.094,0,0,0,1204.96,626.67Zm13.22-5,0.53-1.214,5.37,2.633-0.56,1.286Zm-9.54,7.469,13.89-.985,0.16,1.312-13.97.991Zm11.71,7.777,3.71-2.974,0.88,0.994-3.78,3.025Zm21.68-12.8,7.1-2.829,0.55,1.2-7.17,2.858Zm0.55,7.742,0.22-1.3,10.33,2.308-0.24,1.385Z" transform="translate(-1200.47 -614.688)"/>
</svg>
