<svg xmlns="http://www.w3.org/2000/svg" width="55.624" height="55.62" viewBox="0 0 55.624 55.62">
  <defs>
    <style>
      .cls-1 {
        fill: #ce3241;
        fill-rule: evenodd;
      }
    </style>
  </defs>
  <path id="time.svg" class="cls-1" d="M816.438,1316.25a19.65,19.65,0,1,1,19.678-20.05,0.981,0.981,0,0,1-.962,1h0a1,1,0,0,1-1-.96,17.7,17.7,0,1,0-8.578,15.52,0.991,0.991,0,0,1,1.351.33,0.985,0.985,0,0,1-.334,1.35A19.672,19.672,0,0,1,816.438,1316.25Zm0,4.07A23.72,23.72,0,1,1,840.2,1296.6q0,0.8-.052,1.59a0.983,0.983,0,1,1-1.962-.13c0.032-.48.048-0.97,0.048-1.46a21.768,21.768,0,1,0-8.9,17.55,0.945,0.945,0,0,1,.581-0.19,0.993,0.993,0,0,1,.8.4,0.981,0.981,0,0,1-.21,1.37A23.588,23.588,0,0,1,816.438,1320.32Zm-5.2-49.32a0.984,0.984,0,0,1-.983-0.99v-4.35a0.984,0.984,0,0,1,.983-0.99h10.392a0.984,0.984,0,0,1,.982.99v4.35a0.984,0.984,0,0,1-.982.99H811.242Zm0.983-1.85,8.538-.12-0.112-2.5-8.426.11v2.51Zm2.018,5.69a0.982,0.982,0,0,1-.983-0.98v-3.85a0.982,0.982,0,0,1,.983-0.98h4.39a0.982,0.982,0,0,1,.982.98v3.85a0.982,0.982,0,0,1-.982.98h-4.39Zm0.983-1.85,2.536-.11-0.113-2-2.423.11v2Zm-15.2,8.82a0.959,0.959,0,0,1-.695-0.29l-3.488-3.48a0.983,0.983,0,0,1,1.389-1.39l3.489,3.49a0.971,0.971,0,0,1,0,1.38A0.959,0.959,0,0,1,800.026,1281.81Zm-5.228-1.74a1,1,0,0,1-.7-0.28,0.983,0.983,0,0,1,0-1.39l3.488-3.48a0.958,0.958,0,0,1,.694-0.29,0.97,0.97,0,0,1,.984.98,0.958,0.958,0,0,1-.288.69l-3.488,3.49A0.992,0.992,0,0,1,794.8,1280.07Zm38.074,1.74a0.959,0.959,0,0,1-.695-0.29,0.971,0.971,0,0,1,0-1.38l3.489-3.49a0.983,0.983,0,0,1,1.389,1.39l-3.489,3.48A0.957,0.957,0,0,1,832.872,1281.81Zm5.229-1.74a0.993,0.993,0,0,1-.7-0.28l-3.489-3.49a0.98,0.98,0,1,1,1.391-1.38l3.488,3.48a0.983,0.983,0,0,1,0,1.39A0.993,0.993,0,0,1,838.1,1280.07Zm-21.859,17.49a0.975,0.975,0,0,1-.685-0.52l-5.2-10.47a0.977,0.977,0,0,1,.446-1.31,0.955,0.955,0,0,1,.435-0.11,0.975,0.975,0,0,1,.882.55l4.7,9.46,4.169-3.78a1,1,0,0,1,.642-0.23,0.978,0.978,0,0,1,.642,1.72l-5.195,4.48a0.994,0.994,0,0,1-.642.23Zm16.739,18.8a10.68,10.68,0,1,1,10.7-10.68A10.7,10.7,0,0,1,832.981,1316.36Zm0-19.39a8.715,8.715,0,1,0,8.732,8.71A8.732,8.732,0,0,0,832.981,1296.97Zm14.36,23.35a0.989,0.989,0,0,1-.694-0.28l-7.162-7.15a0.983,0.983,0,0,1,0-1.39,0.977,0.977,0,0,1,1.389,0l7.163,7.15a0.983,0.983,0,0,1,0,1.39A1,1,0,0,1,847.341,1320.32Z" transform="translate(-792.688 -1264.69)"/>
</svg>
